<svg width="25" height="25" viewBox="0 0 25 25" fill="none" xmlns="http://www.w3.org/2000/svg">
<g clip-path="url(#clip0_109_7486)">
<path d="M25 12.5C25 5.5965 19.4035 0 12.5 0C5.5965 0 0 5.5965 0 12.5C0 18.362 4.036 23.281 9.4805 24.632V16.32H6.903V12.5H9.4805V10.854C9.4805 6.5995 11.406 4.6275 15.583 4.6275C16.375 4.6275 17.7415 4.783 18.3005 4.938V8.4005C18.0055 8.3695 17.493 8.354 16.8565 8.354C14.807 8.354 14.015 9.1305 14.015 11.149V12.5H18.098L17.3965 16.32H14.015V24.9085C20.2045 24.161 25.0005 18.891 25.0005 12.5H25Z" fill="#0866FF"/>
<path d="M17.396 16.32L18.0975 12.5H14.0145V11.149C14.0145 9.13052 14.8065 8.35402 16.856 8.35402C17.4925 8.35402 18.005 8.36952 18.3 8.40052V4.93802C17.741 4.78252 16.3745 4.62752 15.5825 4.62752C11.4055 4.62752 9.48002 6.59952 9.48002 10.854V12.5H6.90252V16.32H9.48002V24.632C10.447 24.872 11.4585 25 12.4995 25C13.012 25 13.5175 24.9685 14.014 24.9085V16.32H17.3955H17.396Z" fill="white"/>
</g>
<defs>
<clipPath id="clip0_109_7486">
<rect width="24.0941" height="24.0941" fill="white" transform="scale(1.0376)"/>
</clipPath>
</defs>
</svg>
