<svg width="25" height="25" viewBox="0 0 25 25" fill="none" xmlns="http://www.w3.org/2000/svg">
<g clip-path="url(#clip0_109_7489)">
<path d="M24.5021 6.44321C24.3607 5.91135 24.0822 5.42594 23.6943 5.03556C23.3064 4.64518 22.8228 4.36353 22.2918 4.21878C20.3373 3.69321 12.5248 3.69321 12.5248 3.69321C12.5248 3.69321 4.71229 3.69321 2.75775 4.21878C2.2268 4.36353 1.74319 4.64518 1.3553 5.03556C0.967415 5.42594 0.688862 5.91135 0.547521 6.44321C0.0247937 8.40628 0.0247937 12.5 0.0247937 12.5C0.0247937 12.5 0.0247937 16.5938 0.547521 18.5568C0.688862 19.0887 0.967415 19.5741 1.3553 19.9645C1.74319 20.3549 2.2268 20.6365 2.75775 20.7813C4.71229 21.3068 12.5248 21.3068 12.5248 21.3068C12.5248 21.3068 20.3373 21.3068 22.2918 20.7813C22.8228 20.6365 23.3064 20.3549 23.6943 19.9645C24.0822 19.5741 24.3607 19.0887 24.5021 18.5568C25.0248 16.5938 25.0248 12.5 25.0248 12.5C25.0248 12.5 25.0248 8.40628 24.5021 6.44321Z" fill="#FF0302"/>
<path d="M9.96801 16.2174V8.78272L16.5021 12.5001L9.96801 16.2174Z" fill="#FEFEFE"/>
</g>
<defs>
<clipPath id="clip0_109_7489">
<rect width="24.0941" height="24.0941" fill="white" transform="scale(1.0376)"/>
</clipPath>
</defs>
</svg>
