<svg width="25" height="25" viewBox="0 0 25 25" fill="none" xmlns="http://www.w3.org/2000/svg">
<path d="M0 24.9999L1.75729 18.5802C0.672915 16.701 0.103125 14.5708 0.104166 12.3864C0.107291 5.55728 5.66457 0 12.4927 0C15.8062 0.00104166 18.9166 1.29166 21.2562 3.63332C23.5947 5.97498 24.8822 9.08748 24.8812 12.3979C24.8781 19.2281 19.3208 24.7854 12.4927 24.7854C10.4198 24.7843 8.37706 24.2645 6.56769 23.277L0 24.9999ZM6.87186 21.0343C8.61769 22.0708 10.2843 22.6916 12.4885 22.6927C18.1635 22.6927 22.7864 18.0739 22.7895 12.3958C22.7916 6.70623 18.1906 2.09374 12.4968 2.09166C6.81769 2.09166 2.19791 6.7104 2.19583 12.3875C2.19479 14.7052 2.87395 16.4406 4.01457 18.2562L2.97395 22.0562L6.87186 21.0343ZM18.7333 15.3427C18.6562 15.2135 18.45 15.1364 18.1395 14.9812C17.8302 14.826 16.3083 14.077 16.0239 13.9739C15.7406 13.8708 15.5343 13.8187 15.327 14.1291C15.1208 14.4385 14.527 15.1364 14.3468 15.3427C14.1666 15.5489 13.9854 15.575 13.676 15.4198C13.3666 15.2645 12.3687 14.9385 11.1864 13.8833C10.2666 13.0625 9.64477 12.0489 9.46456 11.7385C9.28435 11.4291 9.44581 11.2614 9.59998 11.1073C9.73956 10.9687 9.90935 10.7458 10.0646 10.5646C10.2218 10.3854 10.2729 10.2562 10.3771 10.0489C10.4802 9.84268 10.4291 9.66143 10.351 9.50623C10.2729 9.35206 9.65414 7.82811 9.39685 7.20832C9.14477 6.60519 8.88956 6.68644 8.69998 6.67707L8.10623 6.66665C7.89998 6.66665 7.56456 6.74373 7.28123 7.05415C6.9979 7.36456 6.1979 8.11248 6.1979 9.63643C6.1979 11.1604 7.30727 12.6323 7.46144 12.8385C7.61665 13.0448 9.64373 16.1718 12.7489 17.5125C13.4875 17.8312 14.0645 18.0218 14.5135 18.1645C15.2552 18.4 15.9302 18.3666 16.4635 18.2875C17.0583 18.1989 18.2947 17.5385 18.5531 16.8156C18.8114 16.0916 18.8114 15.4718 18.7333 15.3427Z" fill="#25D366"/>
</svg>
